<svg xmlns="http://www.w3.org/2000/svg" viewBox="0 0 100 100">
  <defs>
    <linearGradient id="grad" x1="0%" y1="0%" x2="100%" y2="100%">
      <stop offset="0%" stop-color="#8c52ff" />
      <stop offset="100%" stop-color="#5e17eb" />
    </linearGradient>
  </defs>
  <rect width="100" height="100" rx="25" fill="url(#grad)" />
  
  <!-- Main Star -->
  <path fill="white" d="M47.5 25 Q47.5 47.5 70 47.5 Q47.5 47.5 47.5 70 Q47.5 47.5 25 47.5 Q47.5 47.5 47.5 25 Z" />
  
  <!-- Top Left Star -->
  <path fill="white" d="M30 18 Q30 25 37 25 Q30 25 30 32 Q30 25 23 25 Q30 25 30 18 Z" />
  
  <!-- Bottom Right Star -->
  <path fill="white" d="M68 60 Q68 66 74 66 Q68 66 68 72 Q68 66 62 66 Q68 66 68 60 Z" />
</svg>
