<svg width="128" height="128" viewBox="0 0 128 128" fill="none" xmlns="http://www.w3.org/2000/svg">
  <defs>
    <linearGradient id="g" x1="0" y1="0" x2="1" y2="1">
      <stop offset="0%" stop-color="#6366F1"/>
      <stop offset="100%" stop-color="#8B5CF6"/>
    </linearGradient>
    <filter id="shadow" x="-50%" y="-50%" width="200%" height="200%">
      <feDropShadow dx="0" dy="6" stdDeviation="8" flood-color="#000" flood-opacity="0.15"/>
    </filter>
  </defs>
  <rect x="12" y="12" width="104" height="104" rx="24" fill="url(#g)" filter="url(#shadow)"/>
  <path d="M44 40h48a4 4 0 0 1 0 8H52v14h30a4 4 0 1 1 0 8H52v18h40a4 4 0 1 1 0 8H44a8 8 0 0 1-8-8V48a8 8 0 0 1 8-8z" fill="#fff"/>
</svg>

